<?xml version="1.0" standalone="no"?>
<!DOCTYPE svg PUBLIC "-//W3C//DTD SVG 20010904//EN"
 "http://www.w3.org/TR/2001/REC-SVG-20010904/DTD/svg10.dtd">
<svg version="1.0" xmlns="http://www.w3.org/2000/svg"
 width="512.000000pt" height="512.000000pt" viewBox="0 0 512.000000 512.000000"
 preserveAspectRatio="xMidYMid meet">

<g transform="translate(0.000000,512.000000) scale(0.100000,-0.100000)"
fill="#000000" stroke="none">
<path d="M1622 5104 c-70 -19 -106 -38 -158 -86 -37 -34 -44 -47 -44 -78 0
-20 52 -219 116 -441 64 -222 111 -405 106 -407 -5 -1 -30 -16 -55 -32 -55
-35 -110 -107 -133 -174 -23 -68 -16 -186 16 -251 23 -47 83 -116 126 -145 22
-15 14 -27 -386 -653 -224 -351 -426 -678 -449 -727 -51 -110 -95 -242 -118
-357 -27 -134 -24 -423 5 -560 99 -456 396 -843 797 -1039 129 -62 220 -94
365 -126 104 -23 113 -23 750 -23 637 0 646 0 750 23 145 32 236 64 365 126
289 141 516 370 665 671 119 241 167 455 157 710 -8 222 -51 395 -147 590 -26
55 -228 381 -448 725 -392 613 -400 625 -378 640 11 8 39 33 62 56 114 115
126 305 29 437 -30 40 -102 98 -137 109 -6 2 42 185 106 406 64 221 116 420
116 441 0 34 -6 45 -50 85 -71 63 -143 89 -250 90 -99 1 -163 -19 -231 -70
-104 -80 -119 -88 -178 -92 -66 -5 -103 10 -165 65 -21 20 -68 49 -105 67 -60
28 -75 31 -161 31 -112 -1 -171 -22 -259 -94 -75 -60 -98 -71 -159 -71 -59 0
-95 15 -150 64 -106 94 -238 126 -370 90z m207 -219 c20 -14 61 -44 91 -66 73
-54 142 -72 244 -67 96 5 164 32 246 101 97 80 191 87 273 21 118 -96 186
-124 297 -124 113 0 158 19 300 127 50 38 114 51 171 34 30 -9 39 -16 35 -29
-3 -9 -50 -177 -106 -372 -56 -195 -103 -363 -106 -372 -5 -17 -48 -18 -715
-18 -390 0 -709 2 -709 5 0 2 -50 176 -110 386 -61 210 -109 384 -107 385 32
32 144 26 196 -11z m1577 -981 c44 -21 74 -70 74 -124 0 -53 -23 -92 -70 -119
-35 -19 -53 -21 -228 -21 -127 0 -200 -4 -217 -12 -29 -13 -55 -55 -55 -88 0
-29 26 -76 47 -86 10 -5 89 -11 176 -14 l159 -5 415 -650 c228 -357 432 -684
453 -725 48 -96 93 -222 116 -330 26 -118 26 -371 1 -490 -56 -261 -177 -482
-366 -670 -153 -152 -305 -246 -501 -308 -178 -56 -192 -57 -855 -57 -559 0
-617 2 -700 19 -169 35 -326 100 -470 194 -92 61 -269 237 -333 333 -234 350
-293 746 -167 1126 19 55 52 136 74 180 21 43 226 371 454 728 l415 650 159 5
c87 3 166 9 176 14 21 10 47 57 47 85 0 34 -23 72 -51 87 -21 11 -73 14 -220
14 -176 0 -194 2 -229 21 -20 11 -44 34 -53 49 -23 38 -22 105 3 145 42 68 -2
65 898 65 727 0 818 -2 848 -16z"/>
<path d="M2511 3626 c-87 -48 -50 -186 49 -186 51 0 100 49 100 99 0 75 -83
124 -149 87z"/>
<path d="M2511 2726 c-36 -20 -50 -54 -51 -122 l0 -61 -42 -12 c-115 -34 -198
-107 -251 -219 -30 -62 -32 -75 -32 -172 0 -95 3 -111 28 -162 35 -72 103
-132 213 -189 l84 -44 0 -287 0 -288 -25 0 c-36 0 -114 28 -168 61 -63 39
-109 39 -148 0 -39 -39 -40 -97 -4 -134 57 -57 229 -127 312 -127 l33 0 0 -70
c0 -63 3 -73 29 -102 24 -27 36 -33 71 -33 35 0 47 6 71 33 26 29 29 39 29
106 l0 73 46 13 c98 28 218 130 269 230 64 127 74 292 23 403 -50 106 -149
189 -290 242 l-48 18 0 223 c0 140 4 224 10 224 5 0 43 -16 83 -36 83 -41 111
-41 153 1 30 30 33 91 5 127 -24 30 -117 80 -193 104 l-58 18 0 57 c0 70 -15
106 -51 125 -34 17 -67 17 -98 0z m-51 -576 l0 -181 -22 12 c-81 43 -108 83
-108 158 0 53 12 90 43 131 18 24 65 60 80 60 4 0 7 -81 7 -180z m294 -532
c83 -69 101 -189 43 -299 -29 -57 -100 -129 -128 -129 -5 0 -9 100 -9 239 l0
240 28 -10 c16 -5 45 -24 66 -41z"/>
</g>
</svg>
