<?xml version="1.0" encoding="UTF-8" standalone="no"?>
<svg
   xmlns:dc="http://purl.org/dc/elements/1.1/"
   xmlns:cc="http://creativecommons.org/ns#"
   xmlns:rdf="http://www.w3.org/1999/02/22-rdf-syntax-ns#"
   xmlns:svg="http://www.w3.org/2000/svg"
   xmlns="http://www.w3.org/2000/svg"
   xmlns:sodipodi="http://sodipodi.sourceforge.net/DTD/sodipodi-0.dtd"
   xmlns:inkscape="http://www.inkscape.org/namespaces/inkscape"
   height="350"
   viewBox="0 0 500 350"
   width="500"
   version="1.1"
   id="svg6"
   sodipodi:docname="icon.svg"
   inkscape:version="0.92.3 (2405546, 2018-03-11)"
   inkscape:export-filename="/home/kjetil/work/homey-power-of-the-hour/assets/images/small.png"
   inkscape:export-xdpi="48"
   inkscape:export-ydpi="48">
  <metadata
     id="metadata12">
    <rdf:RDF>
      <cc:Work
         rdf:about="">
        <dc:format>image/svg+xml</dc:format>
        <dc:type
           rdf:resource="http://purl.org/dc/dcmitype/StillImage" />
        <dc:title></dc:title>
      </cc:Work>
    </rdf:RDF>
  </metadata>
  <defs
     id="defs10" />
  <sodipodi:namedview
     pagecolor="#ffffff"
     bordercolor="#666666"
     borderopacity="1"
     objecttolerance="10"
     gridtolerance="10"
     guidetolerance="10"
     inkscape:pageopacity="0"
     inkscape:pageshadow="2"
     inkscape:window-width="1920"
     inkscape:window-height="1031"
     id="namedview8"
     showgrid="false"
     inkscape:zoom="0.86915209"
     inkscape:cx="399.58629"
     inkscape:cy="301.58039"
     inkscape:window-x="0"
     inkscape:window-y="25"
     inkscape:window-maximized="1"
     inkscape:current-layer="svg6" />
  <path
     d="M 85.14045,3.8469451 H 425.54077 V 344.24727 H 85.14045 Z"
     id="path2"
     inkscape:connector-curvature="0"
     style="fill:none;stroke-width:14.18334675" />
  <path
     inkscape:connector-curvature="0"
     style="fill:none;stroke-width:14.18334675"
     d="M 85.14045,3.8469451 H 425.54077 V 344.24727 H 85.14045 Z"
     id="path78" />
  <path
     inkscape:connector-curvature="0"
     d="m 255.19878,32.213639 c -78.29208,0 -141.69164,63.541398 -141.69164,141.833471 0,78.29207 63.39956,141.83347 141.69164,141.83347 78.4339,0 141.9753,-63.5414 141.9753,-141.83347 0,-78.292073 -63.5414,-141.833471 -141.9753,-141.833471 z m 0.14183,255.300241 c -62.69039,0 -113.46677,-50.77638 -113.46677,-113.46677 0,-62.69039 50.77638,-113.466778 113.46677,-113.466778 62.69039,0 113.46677,50.776388 113.46677,113.466778 0,62.69039 -50.77638,113.46677 -113.46677,113.46677 z"
     id="path80"
     style="fill:#000000;stroke-width:14.18334675" />
  <path
     inkscape:connector-curvature="0"
     d="m 262.43228,103.13038 h -21.27502 v 85.10008 l 74.46257,44.67754 10.63751,-17.44552 -63.82506,-37.86953 z"
     id="path82"
     style="fill:#000000;stroke-width:14.18334675" />
  <path
     d="m 345.52966,10.819904 -57.71659,87.495643 21.84184,7.690073 -47.22263,71.58733 113.92775,-77.50618 -29.12242,-10.253427 71.09805,-53.379735 z"
     id="path4"
     inkscape:connector-curvature="0"
     style="fill:#ffec00;fill-opacity:1;stroke:#000000;stroke-width:8.44753838;stroke-opacity:1" />
</svg>
