<?xml version="1.0" encoding="iso-8859-1"?>
<!-- Generator: Adobe Illustrator 19.0.0, SVG Export Plug-In . SVG Version: 6.00 Build 0)  -->
<svg version="1.1" id="Layer_1" xmlns="http://www.w3.org/2000/svg" xmlns:xlink="http://www.w3.org/1999/xlink" x="0px" y="0px"
	 viewBox="0 0 512 512" style="enable-background:new 0 0 512 512;" xml:space="preserve">
<g>
	<g>
		<path d="M508.836,189.923l-78.704-59.706c-0.02-0.016-0.043-0.028-0.064-0.044l36.319-32.686l19.169,19.169
			c4.934,4.935,13.65,1.316,13.65-5.654V34.238c0-4.416-3.58-7.996-7.996-7.996h-76.764c-6.969,0-10.589,8.716-5.654,13.65
			l23.623,23.623l-41.261,37.133L261.486,2.278c-2.857-2.168-6.809-2.168-9.665,0l-98.052,74.384v-25.9h9.062
			c4.416,0,7.996-3.58,7.996-7.996V8.649c0-4.416-3.58-7.996-7.996-7.996H43.421c-4.416,0-7.996,3.58-7.996,7.996v34.117
			c0,4.416,3.58,7.996,7.996,7.996h9.062V153.5L4.47,189.923c-2.736,2.075-3.841,5.666-2.746,8.92
			c1.095,3.255,4.145,5.447,7.578,5.447h38.915v91.079l-45.528,39.91c-3.426,3.003-3.605,8.446-0.383,11.667l22.667,22.667
			c2.939,2.939,7.799,3.1,10.926,0.358l12.321-10.801v33.298c0,4.416,3.58,7.996,7.996,7.996c4.416,0,7.996-3.58,7.996-7.996
			v-47.266c0-0.017-0.002-0.033-0.002-0.05l92.204-80.837l9.713,9.713c9.107,9.107,23.677,9.424,33.173,0.722l41.938-38.443
			c3.255-2.984,3.476-8.042,0.492-11.298s-8.042-3.475-11.298-0.492l-41.938,38.444c-3.167,2.901-8.022,2.795-11.057-0.241
			l-15.008-15.008c-2.979-2.979-7.758-3.137-10.926-0.358L30.986,353.01l-11.333-11.333L152.236,225.46
			c3.156-2.762,7.953-2.603,10.919,0.365l14.761,14.76c3.027,3.027,7.901,3.133,11.057,0.241l91.064-83.475
			c3.167-2.901,8.022-2.795,11.057,0.241l23.388,23.388c3.007,3.008,7.842,3.135,11.003,0.289L449.378,69.763
			c3.354-3.019,3.499-8.405,0.305-11.598L433.75,42.233h49.464v49.463l-10.882-10.881c-3.007-3.007-7.842-3.135-11.003-0.289
			L324.907,203.305c-3.163,2.846-7.995,2.719-11.004-0.289l-23.29-23.289c-3.027-3.028-7.901-3.133-11.057-0.241l-15.512,14.218
			c-3.255,2.984-3.476,8.042-0.491,11.298c2.984,3.256,8.042,3.475,11.298,0.491l9.867-9.045l17.876,17.875
			c9.024,9.025,23.524,9.407,33.011,0.869l82.814-74.532c0.513,0.867,61.813,47.639,61.813,47.639h-23.14
			c-4.416,0-7.996,3.58-7.996,7.996v299.059H64.211v-51.709c0-4.416-3.58-7.996-7.996-7.996c-4.416,0-7.996,3.58-7.996,7.996v59.705
			c0,4.416,3.58,7.996,7.996,7.996h400.878c4.416,0,7.996-3.58,7.996-7.996V204.292h38.915c3.434,0,6.484-2.192,7.578-5.447
			C512.677,195.589,511.571,191.998,508.836,189.923z M51.417,34.77V16.645h103.418V34.77H51.417z M137.776,50.762v38.032
			l-69.301,52.573V50.762H137.776z M320.426,164.303l-18.024-18.022c-9.107-9.108-23.678-9.425-33.173-0.722l-85.421,78.302
			l-9.347-9.346c-8.898-8.901-23.29-9.379-32.764-1.088L64.21,281.351v-85.058c0-4.416-3.58-7.996-7.996-7.996H33.074
			L256.653,18.685l122.399,92.854L320.426,164.303z"/>
	</g>
</g>
<g>
	<g>
		<path d="M256.653,290.649c-46.736,0-84.76,38.024-84.76,84.76s38.024,84.76,84.76,84.76s84.76-38.024,84.76-84.76
			S303.39,290.649,256.653,290.649z M256.653,444.177c-37.918,0-68.768-30.849-68.768-68.768s30.849-68.768,68.768-68.768
			s68.768,30.849,68.768,68.768S294.571,444.177,256.653,444.177z"/>
	</g>
</g>
<g>
	<g>
		<path d="M271.58,367.413h-6.93v-22.389h17.592c4.416,0,7.996-3.58,7.996-7.996c0-4.416-3.58-7.996-7.996-7.996H264.65v-9.062
			c0-4.416-3.58-7.996-7.996-7.996c-4.416,0-7.996,3.58-7.996,7.996v9.062h-6.93c-10.287,0-18.658,8.37-18.658,18.658v17.059
			c0,10.287,8.37,18.658,18.658,18.658h6.93v22.389h-17.592c-4.416,0-7.996,3.58-7.996,7.996c0,4.416,3.58,7.996,7.996,7.996h17.592
			v9.062c0,4.416,3.58,7.996,7.996,7.996c4.416,0,7.996-3.58,7.996-7.996v-9.062h6.93c10.287,0,18.658-8.37,18.658-18.658v-17.059
			C290.237,375.783,281.867,367.413,271.58,367.413z M248.657,367.413h-6.93c-1.469,0-2.665-1.196-2.665-2.665v-17.059
			c0-1.469,1.196-2.665,2.665-2.665h6.93V367.413z M274.245,403.13c0,1.469-1.196,2.665-2.665,2.665h-6.93v-22.389h6.93
			c1.469,0,2.665,1.196,2.665,2.665V403.13z"/>
	</g>
</g>
<g>
</g>
<g>
</g>
<g>
</g>
<g>
</g>
<g>
</g>
<g>
</g>
<g>
</g>
<g>
</g>
<g>
</g>
<g>
</g>
<g>
</g>
<g>
</g>
<g>
</g>
<g>
</g>
<g>
</g>
</svg>
