<?xml version="1.0" encoding="UTF-8" standalone="no"?>
<svg
   xmlns:dc="http://purl.org/dc/elements/1.1/"
   xmlns:cc="http://creativecommons.org/ns#"
   xmlns:rdf="http://www.w3.org/1999/02/22-rdf-syntax-ns#"
   xmlns:svg="http://www.w3.org/2000/svg"
   xmlns="http://www.w3.org/2000/svg"
   xmlns:sodipodi="http://sodipodi.sourceforge.net/DTD/sodipodi-0.dtd"
   xmlns:inkscape="http://www.inkscape.org/namespaces/inkscape"
   height="24"
   viewBox="0 0 24 24"
   width="24"
   version="1.1"
   id="svg885"
   sodipodi:docname="previous_consumption.svg"
   inkscape:version="0.92.5 (2060ec1f9f, 2020-04-08)">
  <metadata
     id="metadata891">
    <rdf:RDF>
      <cc:Work
         rdf:about="">
        <dc:format>image/svg+xml</dc:format>
        <dc:type
           rdf:resource="http://purl.org/dc/dcmitype/StillImage" />
        <dc:title></dc:title>
      </cc:Work>
    </rdf:RDF>
  </metadata>
  <defs
     id="defs889" />
  <sodipodi:namedview
     pagecolor="#ffffff"
     bordercolor="#666666"
     borderopacity="1"
     objecttolerance="10"
     gridtolerance="10"
     guidetolerance="10"
     inkscape:pageopacity="0"
     inkscape:pageshadow="2"
     inkscape:window-width="1920"
     inkscape:window-height="1054"
     id="namedview887"
     showgrid="false"
     inkscape:zoom="12.831042"
     inkscape:cx="8.7297363"
     inkscape:cy="9.6930358"
     inkscape:window-x="1920"
     inkscape:window-y="0"
     inkscape:window-maximized="1"
     inkscape:current-layer="svg885" />
  <path
     d="M0 0h24v24H0z"
     fill="none"
     id="path881" />
  <path
     d="M 13,3 C 8.03,3 4,7.03 4,12 H 1 L 4.89,15.89 4.96,16.03 9,12 H 6 c 0,-3.87 3.13,-7 7,-7 3.87,0 7,3.13 7,7 0,3.87 -3.13,7 -7,7 -1.93,0 -3.68,-0.79 -4.94,-2.06 L 6.64,18.36 C 8.27,19.99 10.51,21 13,21 c 4.97,0 9,-4.03 9,-9 0,-4.97 -4.03,-9 -9,-9 z m 4,11.33 c -11.3333333,6.446667 -5.666667,3.223333 0,0 z"
     id="path883"
     inkscape:connector-curvature="0"
     sodipodi:nodetypes="sccccccsssccssscc" />
  <g
     id="g2143"
     transform="matrix(0.00189921,0,0,-0.00189921,8.1333327,17.072953)"
     style="fill:#000000;stroke:none">
    <path
       id="path2141"
       d="m 2426,5099 c -19,-15 -216,-398 -672,-1310 -354,-709 -644,-1298 -644,-1309 0,-32 21,-67 47,-79 16,-8 164,-11 470,-11 352,0 444,-3 440,-12 -2,-7 -219,-522 -481,-1144 C 1324,612 1110,93 1110,81 c 0,-30 52,-81 82,-81 13,0 34,7 46,16 21,14 2714,3205 2755,3264 24,35 21,76 -8,105 l -24,25 h -522 c -413,0 -520,3 -516,13 2,6 223,356 489,777 267,421 490,775 496,787 20,36 14,82 -13,108 l -24,25 h -709 c -708,0 -709,0 -736,-21 z"
       inkscape:connector-curvature="0" />
  </g>
</svg>
