<?xml version="1.0" encoding="UTF-8" standalone="no"?>
<svg
   xmlns:dc="http://purl.org/dc/elements/1.1/"
   xmlns:cc="http://creativecommons.org/ns#"
   xmlns:rdf="http://www.w3.org/1999/02/22-rdf-syntax-ns#"
   xmlns:svg="http://www.w3.org/2000/svg"
   xmlns="http://www.w3.org/2000/svg"
   xmlns:sodipodi="http://sodipodi.sourceforge.net/DTD/sodipodi-0.dtd"
   xmlns:inkscape="http://www.inkscape.org/namespaces/inkscape"
   height="24"
   viewBox="0 0 24 24"
   width="24"
   version="1.1"
   id="svg73"
   sodipodi:docname="newIcon.svg"
   inkscape:version="0.92.3 (2405546, 2018-03-11)">
  <metadata
     id="metadata79">
    <rdf:RDF>
      <cc:Work
         rdf:about="">
        <dc:format>image/svg+xml</dc:format>
        <dc:type
           rdf:resource="http://purl.org/dc/dcmitype/StillImage" />
        <dc:title></dc:title>
      </cc:Work>
    </rdf:RDF>
  </metadata>
  <defs
     id="defs77" />
  <sodipodi:namedview
     pagecolor="#ffffff"
     bordercolor="#666666"
     borderopacity="1"
     objecttolerance="10"
     gridtolerance="10"
     guidetolerance="10"
     inkscape:pageopacity="0"
     inkscape:pageshadow="2"
     inkscape:window-width="1920"
     inkscape:window-height="1176"
     id="namedview75"
     showgrid="false"
     inkscape:zoom="20.6875"
     inkscape:cx="27.091991"
     inkscape:cy="13.255724"
     inkscape:window-x="1920"
     inkscape:window-y="0"
     inkscape:window-maximized="1"
     inkscape:current-layer="svg73"
     inkscape:measure-start="2.46123,12.2659"
     inkscape:measure-end="0,0" />
  <path
     d="M -2.8812858,-2.8139314 H 26.443811 V 26.511166 H -2.8812858 Z"
     id="path69"
     inkscape:connector-curvature="0"
     style="fill:none;stroke-width:1.22187912" />
  <path
     d="m 13.003141,22.84553 c -6.0727381,0 -10.9969105,-4.924173 -10.9969105,-10.996913 L 0.10841954,11.836532 3.0937028,7.0955078 3.179234,6.9244447 6.4323916,11.848617 H 4.4499887 c 0,4.728674 3.8244812,8.553154 8.5531523,8.553154 4.728672,0 8.553155,-3.82448 8.553155,-8.553154 0,-4.7286716 -3.824483,-8.5531531 -8.553155,-8.5531531 -2.358227,0 -4.4965138,0.9652845 -6.0360817,2.5170709 L 5.2319912,4.0774664 C 7.223654,2.0858036 9.9606626,0.85170576 13.003141,0.85170576 c 6.072739,0 10.996913,4.92417264 10.996913,10.99691124 0,6.07274 -4.924174,10.996913 -10.996913,10.996913 z"
     id="path71"
     inkscape:connector-curvature="0"
     sodipodi:nodetypes="sccccccsssccsss"
     style="stroke-width:1.22187912" />
  <path
     style="fill:#000000;stroke:none;stroke-width:0.00164094"
     id="path12"
     d="m 13.237981,4.6739516 c -0.09712,0.038836 -0.197695,0.1583746 -0.312147,0.3710951 -0.119658,0.2298047 -0.173415,0.3307309 -0.216768,0.4223413 -0.01735,0.034165 -0.08151,0.1599271 -0.143936,0.2794854 -0.109242,0.2127251 -0.157807,0.3058884 -0.254921,0.4968682 -0.04855,0.096268 -0.05898,0.1180092 -0.251448,0.4891046 -0.06416,0.1242205 -0.131798,0.2530945 -0.147402,0.2872522 -0.01736,0.034164 -0.05898,0.1164573 -0.09365,0.1832207 -0.03472,0.065212 -0.06243,0.1226645 -0.06243,0.1257681 0,0.00318 -0.03819,0.077638 -0.08499,0.1661425 -0.04682,0.088501 -0.130062,0.2484325 -0.18382,0.3555743 -0.0555,0.1071469 -0.130062,0.2530889 -0.168211,0.3260681 -0.03815,0.072981 -0.09883,0.1925363 -0.136995,0.2670636 -0.03643,0.074533 -0.07457,0.1475102 -0.08324,0.1630366 -0.01045,0.01553 -0.0815,0.1537197 -0.159539,0.3074357 -0.07629,0.1537222 -0.169947,0.3369429 -0.2081,0.4068125 -0.03643,0.069867 -0.06765,0.130428 -0.06765,0.1335342 0,0.00477 -0.03813,0.079178 -0.08499,0.1676906 -0.04683,0.088501 -0.123129,0.2375655 -0.171683,0.3322834 -0.04683,0.093152 -0.123127,0.2406683 -0.168215,0.3260693 -0.04509,0.08538 -0.130058,0.25309 -0.190755,0.372652 -0.058966,0.119561 -0.1526028,0.299674 -0.2063619,0.402151 -0.053753,0.100917 -0.09711,0.184772 -0.09711,0.187877 0,0.003 -0.03643,0.07451 -0.079785,0.158378 -0.09538,0.181667 -0.1075129,0.20651 -0.2687894,0.517051 -0.1092538,0.214274 -0.1248616,0.253095 -0.1317967,0.357126 -0.00871,0.100927 -0.00523,0.121113 0.02603,0.155269 l 0.034703,0.03883 0.804643,-0.0078 c 0.440477,-0.0046 1.064768,-0.0078 1.383852,-0.0078 h 0.580944 l 0.08497,0.03882 c 0.05377,0.02482 0.09365,0.0559 0.110985,0.08695 0.02775,0.05435 0.03643,0.02639 -0.150872,0.472027 -0.03643,0.09005 -0.09193,0.222037 -0.121393,0.295011 -0.0295,0.07299 -0.06243,0.145957 -0.07111,0.163037 -0.0088,0.01708 -0.03643,0.08385 -0.06242,0.147511 -0.02429,0.06367 -0.05549,0.136635 -0.06764,0.163031 -0.01387,0.02481 -0.110996,0.256201 -0.218508,0.512394 -0.105783,0.2562 -0.209829,0.499975 -0.22717,0.543453 -0.01909,0.04193 -0.05201,0.122663 -0.07457,0.17856 -0.02254,0.05588 -0.07629,0.184772 -0.121383,0.287252 -0.08151,0.190981 -0.119658,0.28104 -0.300009,0.714245 -0.05723,0.136643 -0.135262,0.324522 -0.176881,0.419238 -0.0399,0.09317 -0.09017,0.215825 -0.11272,0.27172 -0.02254,0.0559 -0.07629,0.184774 -0.121391,0.287255 -0.04337,0.102485 -0.107514,0.253093 -0.140465,0.333834 -0.03298,0.08075 -0.06764,0.16148 -0.07629,0.17856 -0.0088,0.01708 -0.04337,0.100926 -0.07803,0.186326 -0.03298,0.08538 -0.06937,0.169247 -0.07803,0.186325 -0.01045,0.01709 -0.04855,0.107155 -0.08671,0.201851 -0.03643,0.09317 -0.104041,0.254649 -0.1474044,0.35713 -0.043367,0.102484 -0.098845,0.23135 -0.1196582,0.287251 -0.022556,0.05588 -0.079785,0.19564 -0.128327,0.310539 -0.046824,0.114906 -0.091931,0.232906 -0.097109,0.260853 -0.010447,0.0559 0.02949,0.164594 0.057228,0.155276 0.020828,-0.0063 0.2896082,-0.327623 2.6116306,-3.110085 0.341629,-0.409914 0.906962,-1.088453 1.257258,-1.50613 0.348566,-0.419231 0.832391,-0.998393 1.073439,-1.288753 0.242778,-0.290358 0.473422,-0.566743 0.513304,-0.613322 0.09538,-0.111791 0.30348,-0.36023 1.083846,-1.296513 0.3555,-0.426996 0.68499,-0.821385 0.731811,-0.877284 0.114452,-0.138191 0.156072,-0.218932 0.149138,-0.290359 l -0.0052,-0.05903 -0.346828,-0.0094 c -0.190757,-0.0062 -0.993669,-0.01088 -1.784443,-0.01243 -1.302343,-0.0014 -1.435868,-0.003 -1.425468,-0.02638 0.0052,-0.01396 0.07629,-0.113341 0.154341,-0.220485 0.07975,-0.108654 0.230625,-0.3120492 0.332939,-0.4533482 0.10404,-0.1412955 0.286131,-0.3897328 0.404056,-0.5512115 0.119658,-0.1630366 0.305208,-0.414575 0.410992,-0.5589791 0.107513,-0.1459534 0.306945,-0.4176786 0.445676,-0.6055572 0.136998,-0.1878798 0.343361,-0.4673676 0.456079,-0.6210847 0.11272,-0.1537209 0.315616,-0.4301002 0.45088,-0.6133206 0.404047,-0.5481097 0.749145,-1.0185787 0.924294,-1.2576996 0.09018,-0.1242154 0.225441,-0.3074362 0.298272,-0.4068102 0.169948,-0.2282473 0.209836,-0.3617795 0.135265,-0.4425214 -0.02776,-0.029491 -4.127271,-0.027938 -4.201843,0.00131 z"
     inkscape:connector-curvature="0" />
</svg>
