<?xml version="1.0" encoding="UTF-8" standalone="no"?>
<svg
   xmlns:dc="http://purl.org/dc/elements/1.1/"
   xmlns:cc="http://creativecommons.org/ns#"
   xmlns:rdf="http://www.w3.org/1999/02/22-rdf-syntax-ns#"
   xmlns:svg="http://www.w3.org/2000/svg"
   xmlns="http://www.w3.org/2000/svg"
   xmlns:sodipodi="http://sodipodi.sourceforge.net/DTD/sodipodi-0.dtd"
   xmlns:inkscape="http://www.inkscape.org/namespaces/inkscape"
   height="24"
   viewBox="0 0 24 24"
   width="24"
   version="1.1"
   id="svg73"
   sodipodi:docname="icon.svg"
   inkscape:version="0.92.3 (2405546, 2018-03-11)">
  <metadata
     id="metadata79">
    <rdf:RDF>
      <cc:Work
         rdf:about="">
        <dc:format>image/svg+xml</dc:format>
        <dc:type
           rdf:resource="http://purl.org/dc/dcmitype/StillImage" />
        <dc:title />
      </cc:Work>
    </rdf:RDF>
  </metadata>
  <defs
     id="defs77" />
  <sodipodi:namedview
     pagecolor="#ffffff"
     bordercolor="#666666"
     borderopacity="1"
     objecttolerance="10"
     gridtolerance="10"
     guidetolerance="10"
     inkscape:pageopacity="0"
     inkscape:pageshadow="2"
     inkscape:window-width="1920"
     inkscape:window-height="1176"
     id="namedview75"
     showgrid="false"
     inkscape:zoom="20.6875"
     inkscape:cx="19.817067"
     inkscape:cy="13.062371"
     inkscape:window-x="1920"
     inkscape:window-y="0"
     inkscape:window-maximized="1"
     inkscape:current-layer="svg73"
     inkscape:measure-start="2.46123,12.2659"
     inkscape:measure-end="0,0" />
  <path
     d="m -2.784609,-1.7988257 h 27.4399 V 25.641076 h -27.4399 z"
     id="path69"
     inkscape:connector-curvature="0"
     style="fill:none;stroke-width:1.14332926" />
  <path
     d="m 12.078669,22.21109 c -5.6823446,0 -10.2899611,-4.607618 -10.2899611,-10.289965 L 0.01289977,11.909815 2.8062708,7.4735737 2.8863038,7.3135075 5.9303286,11.921124 H 4.0753664 c 0,4.424686 3.5786202,8.003305 8.0033026,8.003305 4.424684,0 8.003306,-3.578619 8.003306,-8.003305 0,-4.424684 -3.578622,-8.0033046 -8.003306,-8.0033046 -2.2066249,0 -4.2074496,0.9032301 -5.6480447,2.3552582 L 4.807097,4.649551 c 1.8636265,-1.8636266 4.4246835,-3.0183891 7.271572,-3.0183891 5.682346,0 10.289964,4.6076167 10.289964,10.2899631 0,5.682347 -4.607618,10.289965 -10.289964,10.289965 z"
     id="path71"
     inkscape:connector-curvature="0"
     sodipodi:nodetypes="sccccccsssccsss"
     style="stroke-width:1.14332926" />
  <path
     style="fill:#000000;stroke:none;stroke-width:0.00153545"
     id="path12"
     d="m 12.298412,5.2076905 c -0.09088,0.03634 -0.184986,0.1481933 -0.29208,0.3472388 -0.111966,0.2150315 -0.162267,0.3094695 -0.202833,0.3951906 -0.01624,0.031968 -0.07627,0.149646 -0.134683,0.2615184 -0.102219,0.1990498 -0.147662,0.286224 -0.238533,0.4649265 -0.04543,0.090079 -0.05519,0.1104228 -0.235284,0.4576616 -0.06003,0.1162355 -0.123325,0.2368249 -0.137926,0.2687861 -0.01625,0.031972 -0.05519,0.1089712 -0.08763,0.1714419 -0.03249,0.061015 -0.05841,0.1147788 -0.05841,0.1176831 0,0.00297 -0.03573,0.072652 -0.07953,0.1554618 -0.04381,0.082815 -0.1217,0.232462 -0.172002,0.3327163 -0.05193,0.1002584 -0.121701,0.236819 -0.157397,0.3051062 -0.0357,0.068288 -0.09248,0.1801588 -0.128189,0.2498957 -0.03409,0.069743 -0.06977,0.1380271 -0.07789,0.1525555 -0.0098,0.014527 -0.07626,0.1438377 -0.149282,0.2876714 -0.07138,0.1438397 -0.1590217,0.3152826 -0.1947213,0.3806606 -0.03409,0.065379 -0.063301,0.122043 -0.063301,0.1249493 0,0.00445 -0.035679,0.074087 -0.079526,0.1569105 -0.043819,0.082815 -0.1152125,0.2222932 -0.1606452,0.3109222 -0.04382,0.08716 -0.1152117,0.225197 -0.1574011,0.305108 -0.042191,0.0799 -0.1216971,0.23682 -0.1784922,0.348695 -0.055175,0.111876 -0.1427925,0.280409 -0.1930956,0.376299 -0.050297,0.09443 -0.090868,0.172894 -0.090868,0.175799 0,0.0028 -0.034088,0.06972 -0.074656,0.148196 -0.089249,0.169989 -0.1006013,0.193235 -0.2515099,0.483812 -0.1022303,0.2005 -0.1168347,0.236825 -0.123324,0.334168 -0.00815,0.09444 -0.0049,0.113327 0.024357,0.145287 l 0.032472,0.03634 0.7529157,-0.0073 c 0.4121604,-0.0043 0.9963176,-0.0073 1.2948886,-0.0073 h 0.543598 l 0.07951,0.03633 c 0.05032,0.02322 0.08763,0.05231 0.103851,0.08136 0.02597,0.05085 0.03409,0.0247 -0.141173,0.441682 -0.03409,0.08426 -0.08602,0.207763 -0.11359,0.276046 -0.02761,0.0683 -0.05841,0.136574 -0.06654,0.152556 -0.0082,0.01598 -0.03409,0.07846 -0.0584,0.138028 -0.02273,0.05958 -0.05192,0.127852 -0.06329,0.152551 -0.01298,0.02322 -0.103861,0.23973 -0.204461,0.479454 -0.09898,0.239729 -0.196341,0.467833 -0.212566,0.508516 -0.01786,0.03924 -0.04867,0.114778 -0.06977,0.167081 -0.02109,0.05229 -0.07138,0.172894 -0.113579,0.268786 -0.07627,0.178704 -0.111966,0.262973 -0.280723,0.668329 -0.05355,0.127859 -0.1265663,0.30366 -0.1655097,0.392287 -0.037335,0.08718 -0.084373,0.201951 -0.1054734,0.254252 -0.021091,0.05231 -0.071386,0.172895 -0.1135872,0.268789 -0.040582,0.0959 -0.1006024,0.236823 -0.1314351,0.312373 -0.03086,0.07556 -0.063292,0.151099 -0.071385,0.167081 -0.00823,0.01598 -0.040582,0.09444 -0.073013,0.174347 -0.03086,0.0799 -0.06491,0.158367 -0.073013,0.174348 -0.00978,0.01599 -0.045429,0.100266 -0.081136,0.188874 -0.034088,0.08718 -0.097353,0.238279 -0.1379283,0.334172 -0.040579,0.0959 -0.09249,0.216477 -0.1119659,0.268784 -0.021106,0.05229 -0.074656,0.183063 -0.1200773,0.290576 -0.043814,0.107519 -0.086021,0.217933 -0.090867,0.244084 -0.00978,0.05231 0.027594,0.154013 0.053549,0.145294 0.019489,-0.0059 0.2709904,-0.306561 2.4437379,-2.910149 0.319667,-0.383563 0.848657,-1.018481 1.176434,-1.409308 0.326158,-0.39228 0.77888,-0.93421 1.004432,-1.205904 0.227171,-0.271692 0.442988,-0.530309 0.480305,-0.573894 0.08925,-0.104604 0.283971,-0.337072 1.014171,-1.213165 0.332646,-0.399546 0.640954,-0.768581 0.684765,-0.820886 0.107094,-0.129308 0.146038,-0.204858 0.13955,-0.271694 l -0.0048,-0.05524 -0.324531,-0.0088 c -0.178494,-0.0058 -0.92979,-0.01018 -1.669728,-0.01163 -1.218621,-0.0013 -1.343562,-0.0028 -1.33383,-0.02469 0.0048,-0.01306 0.07139,-0.106055 0.144419,-0.20631 0.07462,-0.10167 0.215799,-0.291989 0.311535,-0.424205 0.09735,-0.1322125 0.267737,-0.3646785 0.378081,-0.5157764 C 13.421368,9.269864 13.594989,9.0344958 13.693973,8.899375 13.794574,8.7628045 13.981186,8.5085469 14.110998,8.332747 14.239132,8.1568932 14.432229,7.8953724 14.5377,7.7515367 14.643174,7.607698 14.833027,7.3490865 14.959595,7.1776445 15.337668,6.6647707 15.660581,6.2245463 15.82447,6.0007976 c 0.08439,-0.1162301 0.210948,-0.2876724 0.279098,-0.380658 0.159022,-0.2135742 0.196345,-0.3385221 0.126569,-0.4140735 -0.02598,-0.027595 -3.861945,-0.026142 -3.931723,0.00123 z"
     inkscape:connector-curvature="0" />
</svg>
