<?xml version="1.0" encoding="iso-8859-1"?>
<!-- Generator: Adobe Illustrator 16.0.0, SVG Export Plug-In . SVG Version: 6.00 Build 0)  -->
<!DOCTYPE svg PUBLIC "-//W3C//DTD SVG 1.1//EN" "http://www.w3.org/Graphics/SVG/1.1/DTD/svg11.dtd">
<svg version="1.1" id="Capa_1" xmlns="http://www.w3.org/2000/svg" xmlns:xlink="http://www.w3.org/1999/xlink" x="0px" y="0px"
	 width="485.221px" height="485.221px" viewBox="0 0 485.221 485.221" style="enable-background:new 0 0 485.221 485.221;"
	 xml:space="preserve">
<g>
	<path d="M35.725,242.139c-1.836,0.325-3.643,0.471-5.418,0.471c-14.394,0-27.158-10.307-29.823-24.934
		c-2.964-16.493,7.997-32.28,24.493-35.241c74.244-13.39,153.995-51.237,237.246-112.033l-35.005-42.47L394.245,0.004
		l-59.318,158.62l-34.084-41.343C208.143,185.574,121.195,226.74,35.725,242.139z M90.988,333.589H60.661
		c-16.731,0-30.327,13.562-30.327,30.321v90.98c0,16.764,13.595,30.326,30.327,30.326h30.327c16.762,0,30.324-13.562,30.324-30.326
		v-90.98C121.312,347.151,107.75,333.589,90.988,333.589z M333.592,212.286h-30.327c-16.759,0-30.321,13.562-30.321,30.324v212.28
		c0,16.764,13.562,30.326,30.321,30.326h30.327c16.765,0,30.327-13.562,30.327-30.326V242.61
		C363.919,225.849,350.356,212.286,333.592,212.286z M454.898,151.633h-30.331c-16.76,0-30.322,13.565-30.322,30.327v272.931
		c0,16.764,13.562,30.326,30.322,30.326h30.331c16.76,0,30.322-13.562,30.322-30.326V181.959
		C485.221,165.198,471.658,151.633,454.898,151.633z M212.29,272.935h-30.325c-16.731,0-30.327,13.567-30.327,30.327v151.629
		c0,16.764,13.595,30.326,30.327,30.326h30.325c16.764,0,30.326-13.562,30.326-30.326V303.262
		C242.616,286.502,229.054,272.935,212.29,272.935z"/>
</g>
<g>
</g>
<g>
</g>
<g>
</g>
<g>
</g>
<g>
</g>
<g>
</g>
<g>
</g>
<g>
</g>
<g>
</g>
<g>
</g>
<g>
</g>
<g>
</g>
<g>
</g>
<g>
</g>
<g>
</g>
</svg>
